<svg width="24" height="24" xmlns="http://www.w3.org/2000/svg" role="img">
 <title>Next.js icon</title>

 <g>
  <title>Layer 1</title>
  <ellipse fill="#ffffff" ry="9.33027" rx="9.33027" id="svg_4" cy="14.3433" cx="13.40593"/>
  <path id="svg_1" d="m11.2141,0.0067c-0.0516,0.0053 -0.2159,0.021 -0.3636,0.0328c-3.4088,0.3073 -6.6017,2.1463 -8.624,4.9728c-1.1261,1.5717 -1.8463,3.3543 -2.1183,5.2427c-0.0962,0.659 -0.108,0.8537 -0.108,1.7474s0.012,1.0884 0.108,1.7476c0.652,4.506 3.8591,8.2919 8.2087,9.6945c0.7789,0.2511 1.6,0.4223 2.5337,0.5255c0.3636,0.04 1.9354,0.04 2.299,0c1.6117,-0.1783 2.9772,-0.577 4.3237,-1.2643c0.2065,-0.1056 0.2464,-0.1337 0.2183,-0.1573c-0.0188,-0.0139 -0.8987,-1.1938 -1.9543,-2.62l-1.919,-2.592l-2.4047,-3.5583c-1.3231,-1.9564 -2.4117,-3.556 -2.4211,-3.556c-0.0094,-0.0026 -0.0187,1.5787 -0.0235,3.509c-0.0067,3.3802 -0.0093,3.5162 -0.0516,3.596c-0.061,0.115 -0.108,0.1618 -0.2064,0.2134c-0.075,0.0374 -0.1408,0.0445 -0.495,0.0445l-0.406,0l-0.1078,-0.068a0.4383,0.4383 0 0 1 -0.1572,-0.1712l-0.0493,-0.1056l0.0053,-4.703l0.0067,-4.7054l0.0726,-0.0915c0.0376,-0.0493 0.1174,-0.1125 0.1736,-0.143c0.0962,-0.047 0.1338,-0.0517 0.5396,-0.0517c0.4787,0 0.5584,0.0187 0.6827,0.1547c0.0353,0.0377 1.3373,1.9987 2.895,4.3608a10760.433,10760.433 0 0 0 4.7344,7.1706l1.9002,2.8782l0.096,-0.0633c0.8518,-0.5536 1.7525,-1.3418 2.4657,-2.1627c1.5179,-1.7429 2.4963,-3.868 2.8247,-6.134c0.0961,-0.6591 0.1078,-0.854 0.1078,-1.7475c0,-0.8937 -0.012,-1.0884 -0.1078,-1.7476c-0.6522,-4.506 -3.8592,-8.2919 -8.2087,-9.6945c-0.7672,-0.2487 -1.5836,-0.42 -2.4985,-0.5232c-0.169,-0.0176 -1.0835,-0.0366 -1.6123,-0.037l-0.3586,0.0066zm4.4269,7.2103c0.3473,0 0.4082,0.0053 0.4857,0.047c0.1127,0.0562 0.204,0.1642 0.237,0.2767c0.0186,0.061 0.0234,1.3653 0.0186,4.3044l-0.0067,4.2175l-0.7436,-1.14l-0.7461,-1.14l0,-3.066c0,-1.982 0.0093,-3.0963 0.0234,-3.1502c0.0375,-0.1313 0.1196,-0.2346 0.2323,-0.2955c0.0961,-0.0494 0.1313,-0.054 0.4997,-0.054l-0.0003,0.0001z"/>
 </g>
</svg>